<svg xmlns="http://www.w3.org/2000/svg" width="85.334" height="56.778" viewBox="0 0 85.334 56.778"><g transform="translate(-3098.914 -379.624)"><path d="M3183.823,425.757H3180.1a2.5,2.5,0,0,0-.54-1.3,2.8,2.8,0,0,0-2.016-.6,3.01,3.01,0,0,0-1.925.462,1.2,1.2,0,0,0-.411.95c0,.564.784,1.014,2.336,1.361a37.226,37.226,0,0,1,3.827.988c.2.078.385.142.514.2a3.6,3.6,0,0,1,2.363,3.391,4.3,4.3,0,0,1-2.3,4.044c-.193.1-.373.193-.578.283a8.694,8.694,0,0,1-3.44.642,9.439,9.439,0,0,1-4.7-1.028,4.431,4.431,0,0,1-1.686-1.647,4.628,4.628,0,0,1-.561-2.32h3.9a1.846,1.846,0,0,0,.719,1.554,4.007,4.007,0,0,0,2.426.566,2.928,2.928,0,0,0,1.927-.54,1.2,1.2,0,0,0,.487-.95c0-.6-.768-1.078-2.3-1.413a25.034,25.034,0,0,1-4.314-1.169,3.579,3.579,0,0,1-2.336-3.429,4.481,4.481,0,0,1,1.219-3.2,6.041,6.041,0,0,1,4.61-1.632,9.625,9.625,0,0,1,4.044.72,1.325,1.325,0,0,1,.245.129,4.072,4.072,0,0,1,1.653,1.58A4.707,4.707,0,0,1,3183.823,425.757Z"/><path d="M3181.833,416.667a.3.3,0,0,0-.051-.193.278.278,0,0,0-.166-.128,1.919,1.919,0,0,0-.245-.04h-.59v.72h.59a.555.555,0,0,0,.347-.1A.329.329,0,0,0,3181.833,416.667Zm.309-.386a.565.565,0,0,1,.115.346.621.621,0,0,1-.193.462.738.738,0,0,1-.5.219.649.649,0,0,1,.206.128l.358.476.283.474h-.462l-.219-.384a2.2,2.2,0,0,0-.359-.514.17.17,0,0,0-.052-.038l-.307-.09h-.231v1.026h-.386v-2.413h.834c.052,0,.1.013.142.013a1.382,1.382,0,0,1,.462.064A.56.56,0,0,1,3182.142,416.281Z"/><path d="M3183.234,417.155a1.859,1.859,0,0,0-.245-.938,1.809,1.809,0,0,0-.693-.693,1.981,1.981,0,0,0-.913-.244h-.012a1.97,1.97,0,0,0-.91.244,1.8,1.8,0,0,0-.695.693,1.82,1.82,0,0,0,0,1.862,1.742,1.742,0,0,0,.68.68,1.85,1.85,0,0,0,.925.245h.012a1.851,1.851,0,0,0,.926-.245,1.731,1.731,0,0,0,.68-.68A1.846,1.846,0,0,0,3183.234,417.155Zm.372,0a2.2,2.2,0,0,1-.3,1.1,1.954,1.954,0,0,1-.821.821,2.152,2.152,0,0,1-1.106.3h-.012a2.145,2.145,0,0,1-1.1-.3,1.948,1.948,0,0,1-.822-.821,2.2,2.2,0,0,1-.3-1.1,2.226,2.226,0,0,1,.3-1.131,2.06,2.06,0,0,1,.835-.821,2.423,2.423,0,0,1,1.091-.3h.012a2.28,2.28,0,0,1,1.092.3,1.981,1.981,0,0,1,.835.821A2.229,2.229,0,0,1,3183.606,417.155Z"/><path d="M3161.764,399.012l10.542,17.565h-16.936L3145.3,399.8l-7.626-12.7,7.626-4.584,4.8-2.889Z"/><path d="M3169.418,428.774v7.2h-3.506v-.8a7.5,7.5,0,0,1-4.109,1.221h-.039a7.627,7.627,0,0,1,0-15.254h.039a7.514,7.514,0,0,1,4.109,1.219v-.835h3.506Zm-3.506.8v-1.592a4.2,4.2,0,0,0-4.109-3.391h-.039a4.193,4.193,0,0,0,0,8.385h.039A4.211,4.211,0,0,0,3165.912,429.571Z"/><path d="M3152.956,428.774v7.2h-3.5v-.8a7.532,7.532,0,0,1-4.11,1.221h-.038a7.627,7.627,0,0,1,0-15.254h.038a7.547,7.547,0,0,1,4.11,1.219v-5.79h3.5Zm-3.5.8v-1.592a4.2,4.2,0,0,0-4.11-3.391h-.038a4.193,4.193,0,0,0,0,8.385h.038A4.212,4.212,0,0,0,3149.452,429.571Z"/><path d="M3145.3,409.668l4.134,6.909h-16.923l-9.4-15.639-.41-.681.41-.243,12.031-7.243Z"/><rect width="3.813" height="14.83" transform="translate(3132.529 421.147)"/><rect width="3.813" height="3.351" transform="translate(3132.529 416.653)"/><path d="M3130.782,428.774v7.2h-3.5v-.8a7.568,7.568,0,0,1-4.122,1.221h-.038a7.627,7.627,0,0,1,0-15.254h.038a7.583,7.583,0,0,1,4.122,1.219v-5.79h3.5Zm-3.5.8v-1.592a4.2,4.2,0,0,0-4.122-3.391h-.038a4.193,4.193,0,0,0,0,8.385h.038A4.214,4.214,0,0,0,3127.277,429.571Z"/><path d="M3123.117,410.8l3.467,5.779h-16.936l-1.9-3.172,12.441-7.473Z"/><path d="M3114.155,428.774v7.2h-3.505v-.8a7.574,7.574,0,0,1-4.122,1.221h-.039a7.627,7.627,0,0,1,0-15.254h.039a7.589,7.589,0,0,1,4.122,1.219v-.835h3.505Zm-3.505.8v-1.592a4.2,4.2,0,0,0-4.122-3.391h-.039a4.193,4.193,0,0,0,0,8.385h.039A4.213,4.213,0,0,0,3110.65,429.571Z"/></g></svg>