<svg xmlns="http://www.w3.org/2000/svg" width="19.063" height="20.513" viewBox="0 0 19.063 20.513"><g transform="translate(-3467.208 -331.756)"><path d="M3472.64,345.263h11.3a2.332,2.332,0,0,0,2.327-2.328v-4.806a.058.058,0,0,0,0-.025c0-.008,0-.021,0-.029s0-.017,0-.026a.23.23,0,0,1-.008-.029c0-.009,0-.017-.008-.026a.228.228,0,0,1-.009-.025.251.251,0,0,1-.012-.029.111.111,0,0,0-.013-.021l-.013-.026-.012-.021c0-.008-.013-.017-.017-.025a.068.068,0,0,0-.017-.021c0-.009-.013-.013-.017-.021s-.013-.013-.017-.021-.013-.013-.017-.017l-.021-.021c-.008,0-.012-.013-.021-.017s-.017-.013-.025-.017l-.021-.013a.092.092,0,0,1-.026-.016l-.025-.013-.025-.013-.025-.012c-.009,0-.017,0-.026-.009a.079.079,0,0,0-.029-.008.127.127,0,0,1-.021-.005.1.1,0,0,0-.034,0s-.008,0-.017,0l-14.325-1.977v-2a.255.255,0,0,0,0-.059.027.027,0,0,0,0-.017c0-.013,0-.026,0-.038s0-.021-.008-.034-.005-.013-.005-.021l-.012-.038,0-.017a.186.186,0,0,0-.017-.034s0-.012-.009-.016a.079.079,0,0,0-.017-.026l-.012-.021-.013-.021c0-.008-.013-.017-.017-.025l-.012-.013-.026-.025-.012-.013a.2.2,0,0,0-.03-.025l-.017-.013c-.008-.008-.017-.012-.025-.021s-.025-.017-.034-.021l-.012-.008c-.017-.009-.038-.017-.055-.026L3468,331.8a.57.57,0,0,0-.443,1.05l2.757,1.164v12.47a2.329,2.329,0,0,0,2.028,2.306,2.3,2.3,0,1,0,4.266,1.181,2.252,2.252,0,0,0-.316-1.16h5.118a2.272,2.272,0,0,0-.316,1.16,2.3,2.3,0,1,0,2.3-2.3H3472.64a1.19,1.19,0,0,1-1.188-1.189v-1.543A2.344,2.344,0,0,0,3472.64,345.263Zm2.833,4.7a1.159,1.159,0,1,1-1.159-1.159A1.161,1.161,0,0,1,3475.473,349.967Zm9.081,0a1.159,1.159,0,1,1-1.159-1.159A1.161,1.161,0,0,1,3484.554,349.967Zm-.611-5.843h-11.3a1.19,1.19,0,0,1-1.188-1.189v-6.15l13.68,1.884v4.262A1.191,1.191,0,0,1,3483.943,344.124Z"/></g></svg>