<svg xmlns="http://www.w3.org/2000/svg" width="116.409" height="30" viewBox="0 0 116.409 30"><defs><style>.a{fill:#3c3c3b;}</style></defs><g transform="translate(-2613.581 -327.013)"><path class="a" d="M2650.932,336.973a2.84,2.84,0,0,1,1.987-.468,4.56,4.56,0,0,1,2.459,1.071l.285.273,2.287-2.655-.319-.241a8.822,8.822,0,0,0-5.011-1.542c-3.1,0-5.593,1.9-5.8,4.423-.222,2.708,2.264,3.536,4.261,4.2l.158.053c1.446.469,2.465.861,2.4,1.638-.059.723-.992,1.194-2.266,1.148a5.363,5.363,0,0,1-3.534-1.4l-.292-.383-2.137,2.684.223.236a8.5,8.5,0,0,0,5.688,2.011c3.3,0,5.861-1.916,6.078-4.557.243-2.956-2.372-3.768-4.279-4.36l-.119-.038c-1.527-.485-2.45-.831-2.391-1.546a.8.8,0,0,1,.321-.549"/><path class="a" d="M2667.6,333.411a6.421,6.421,0,0,0-3.8,1.241l.627-7.639h-3.712l-1.7,20.743h3.712l.678-8.261a3.119,3.119,0,0,1,3.13-2.721,2.525,2.525,0,0,1,1.9.753,2.228,2.228,0,0,1,.555,1.746l-.7,8.483h3.739l.719-8.768a4.9,4.9,0,0,0-5.147-5.577"/><path class="a" d="M2681.437,344.214a1.562,1.562,0,0,1-1.249.526,1.191,1.191,0,0,1-.913-.315,1.659,1.659,0,0,1-.281-1.278l.529-6.453h3.759l.247-3.017h-3.785l.373-4.532h-3.712l-.267,3.254a1.4,1.4,0,0,1-1.386,1.278h-.345l-.248,3.017h1.626l-.525,6.391a4.541,4.541,0,0,0,1.072,3.554,4.691,4.691,0,0,0,3.568,1.384,4.983,4.983,0,0,0,3.528-1.277l.237-.227-1.918-2.624Z"/><path class="a" d="M2626.931,333.68l-.3,2.711a4.844,4.844,0,0,1-4.691,4.229,3.721,3.721,0,0,1-3.765-4.229l.3-2.711h-3.682l-.3,2.711a6.953,6.953,0,0,0,7.043,7.91,8.572,8.572,0,0,0,4.363-1.226l-.134,1.226a4.846,4.846,0,0,1-4.692,4.229,3.721,3.721,0,0,1-3.765-4.229h-3.682a6.954,6.954,0,0,0,7.043,7.911,9.052,9.052,0,0,0,8.777-7.911l1.164-10.621Z"/><path class="a" d="M2618.956,353.4a2.064,2.064,0,0,0-2,1.8,1.586,1.586,0,0,0,1.606,1.8,2.066,2.066,0,0,0,2-1.8,1.586,1.586,0,0,0-1.607-1.8"/><path class="a" d="M2623.917,353.4a2.066,2.066,0,0,0-2,1.8,1.586,1.586,0,0,0,1.607,1.8,2.064,2.064,0,0,0,2-1.8,1.586,1.586,0,0,0-1.606-1.8"/><path class="a" d="M2722.8,336.391a4.846,4.846,0,0,1-4.692,4.229,3.721,3.721,0,0,1-3.765-4.229l.3-2.711h-3.682l-.3,2.711a6.954,6.954,0,0,0,7.044,7.91,8.57,8.57,0,0,0,4.362-1.226l-.134,1.226a4.845,4.845,0,0,1-4.692,4.229,3.721,3.721,0,0,1-3.765-4.229h-3.682a6.954,6.954,0,0,0,7.044,7.91,9.053,9.053,0,0,0,8.777-7.91l.247-2.257.917-8.364H2723.1Z"/><path class="a" d="M2727.567,333.68l-.023.2h.34l-.116.985H2728l.116-.985h.34l.023-.2Z"/><path class="a" d="M2729.749,333.68l-.514.588-.367-.579-.006-.01h-.24l-.139,1.181h.238l.1-.847.374.607.519-.6-.1.844h.236l.139-1.181Z"/><path class="a" d="M2635.489,339.009a3.218,3.218,0,0,1,3.207-2.315,2.384,2.384,0,0,1,2.615,2.315Zm3.362-5.6c-4.033,0-6.984,2.934-7.343,7.3a7.1,7.1,0,0,0,1.58,5.477,6.08,6.08,0,0,0,4.624,1.833,6.909,6.909,0,0,0,6.1-3.362l-2.541-1.89c-1.206,1.649-2.01,1.942-3.24,1.942a2.64,2.64,0,0,1-2.917-2.688h9.321l.077-.273a4.716,4.716,0,0,0,.134-.9,7.392,7.392,0,0,0-1.565-5.759,5.56,5.56,0,0,0-4.228-1.684"/><path class="a" d="M2688.5,339.009a3.216,3.216,0,0,1,3.207-2.315,2.384,2.384,0,0,1,2.615,2.315Zm3.361-5.6c-4.033,0-6.983,2.934-7.342,7.3a7.1,7.1,0,0,0,1.58,5.477,6.079,6.079,0,0,0,4.624,1.833,6.909,6.909,0,0,0,6.1-3.362l-2.541-1.89c-1.206,1.649-2.01,1.942-3.24,1.942a2.64,2.64,0,0,1-2.917-2.688h9.321l.077-.273a4.716,4.716,0,0,0,.134-.9,7.392,7.392,0,0,0-1.565-5.759,5.562,5.562,0,0,0-4.229-1.684"/><path class="a" d="M2703.389,334.978l0-1.3h-3.412l-1.156,14.079h3.712l.615-7.488a3.717,3.717,0,0,1,3.459-3.494h.11a4.176,4.176,0,0,1,2,.455l.345-3.543a6.31,6.31,0,0,0-2.078-.276,5.363,5.363,0,0,0-3.588,1.567"/></g></svg>