<svg xmlns="http://www.w3.org/2000/svg" width="44.272" height="48" viewBox="0 0 44.272 48"><defs><style>.a{fill:#1d1d1b;}</style></defs><g transform="translate(-7392.282 -654.513)"><path class="a" d="M7394.673,678.5a19.767,19.767,0,0,1,19.745-19.745,19.523,19.523,0,0,1,10.227,2.848l-3.9,1.043a1.2,1.2,0,0,0,.308,2.351,1.179,1.179,0,0,0,.31-.041l6.383-1.706.022-.007.066-.021.047-.018c.021-.008.041-.017.06-.026s.033-.015.049-.024.035-.019.053-.03a.441.441,0,0,0,.049-.03l.047-.032.049-.037.041-.036.048-.044.035-.037.045-.051.016-.018.016-.023c.013-.017.026-.035.038-.053s.021-.032.031-.048l.014-.022.014-.027c.01-.018.02-.037.029-.056s.014-.031.021-.046.017-.041.024-.061l.016-.049a.621.621,0,0,0,.018-.061.408.408,0,0,0,.012-.055c0-.018.008-.037.011-.055s.006-.042.008-.062,0-.035,0-.052l0-.025c0-.014,0-.027,0-.04v-.051c0-.021,0-.042,0-.063l-.006-.056q0-.029-.01-.057c0-.021-.008-.042-.013-.063l-.006-.028-1.706-6.382a1.2,1.2,0,1,0-2.31.617l.878,3.284a22.135,22.135,0,0,0-28.374,32.954,1.2,1.2,0,1,0,1.872-1.487A19.536,19.536,0,0,1,7394.673,678.5Z"/><path class="a" d="M7435.282,671.084a22.073,22.073,0,0,0-3.523-6.347,1.2,1.2,0,1,0-1.872,1.488,19.539,19.539,0,0,1,4.276,12.272,19.767,19.767,0,0,1-19.745,19.745,19.521,19.521,0,0,1-10.188-2.825l3.864-1.033a1.2,1.2,0,0,0-.618-2.31l-6.111,1.633a1.192,1.192,0,0,0-1.157,1.17v.024c0,.013,0,.025,0,.038a1.2,1.2,0,0,0,.039.3l1.706,6.382a1.2,1.2,0,0,0,1.154.887,1.223,1.223,0,0,0,.31-.04,1.2,1.2,0,0,0,.846-1.464l-.888-3.324a22.147,22.147,0,0,0,31.907-26.6Z"/><path class="a" d="M7406.087,682.882a1.432,1.432,0,0,1-1.561.174.975.975,0,0,1-.387-.493,2.826,2.826,0,0,1-.165-.88H7401.4a5.427,5.427,0,0,0,.464,2.282,2.755,2.755,0,0,0,1.291,1.3l.856.416h1.306a4.368,4.368,0,0,0,2.011-.426,2.921,2.921,0,0,0,1.267-1.223,3.978,3.978,0,0,0,.435-1.929v-1.276a2.863,2.863,0,0,0-.488-1.7,2.4,2.4,0,0,0-1.369-.929,2.9,2.9,0,0,0,1.2-.967,2.338,2.338,0,0,0,.426-1.373V674.7a3.322,3.322,0,0,0-.9-2.494,3.516,3.516,0,0,0-2.558-.88,4.245,4.245,0,0,0-2.021.43,2.824,2.824,0,0,0-1.228,1.33,5.859,5.859,0,0,0-.464,2.34h2.572a3.265,3.265,0,0,1,.159-.938,1.125,1.125,0,0,1,.353-.527.9.9,0,0,1,.561-.17.847.847,0,0,1,.672.271,1.123,1.123,0,0,1,.237.764v1a1.434,1.434,0,0,1-.227.861.753.753,0,0,1-.643.309h-.967v2.447h.967a1,1,0,0,1,.817.348,1.518,1.518,0,0,1,.285.986v1.17A1.279,1.279,0,0,1,7406.087,682.882Z"/><path class="a" d="M7414.215,671.472l-2.534,5.773c-.038.083-.077.172-.116.266s-.074.182-.106.265a11.007,11.007,0,0,0-.5,1.606,7.312,7.312,0,0,0-.169,1.586v.928a4.465,4.465,0,0,0,.43,2.045,2.919,2.919,0,0,0,1.257,1.286,4.685,4.685,0,0,0,3.975-.005,2.963,2.963,0,0,0,1.261-1.3,4.478,4.478,0,0,0,.436-2.055v-1.044a4.625,4.625,0,0,0-.382-1.968,2.781,2.781,0,0,0-1.1-1.248,3.3,3.3,0,0,0-1.726-.43,2.1,2.1,0,0,0-.468.051l2.509-5.756Zm1.127,8.495a1.511,1.511,0,0,1,.314,1.02v.986a1.345,1.345,0,0,1-.3.948,1.148,1.148,0,0,1-.885.329,1.135,1.135,0,0,1-.87-.329,1.333,1.333,0,0,1-.309-.948V681a1.571,1.571,0,0,1,.3-1.021,1.067,1.067,0,0,1,.875-.372A1.1,1.1,0,0,1,7415.342,679.967Z"/><path class="a" d="M7420.95,672.284a3.686,3.686,0,0,0-.962,2.717v6.982a3.73,3.73,0,1,0,7.446,0V675a3.686,3.686,0,0,0-.962-2.722,4.434,4.434,0,0,0-5.522.005Zm3.665,1.89a1.915,1.915,0,0,1,.3,1.156v6.324a1.911,1.911,0,0,1-.3,1.161,1.21,1.21,0,0,1-1.808,0,1.908,1.908,0,0,1-.305-1.161V675.33a1.936,1.936,0,0,1,.3-1.156,1.206,1.206,0,0,1,1.813,0Z"/></g></svg>