<svg xmlns="http://www.w3.org/2000/svg" width="25.765" height="24" viewBox="0 0 25.765 24"><path d="M3537.769,398.3h0a7.159,7.159,0,0,0-10.49,0l-.269.284-.268-.282a7.16,7.16,0,0,0-10.122-.372q-.194.178-.373.372a8.04,8.04,0,0,0,0,10.886l9.927,10.468a1.138,1.138,0,0,0,.8.358h.031a1.141,1.141,0,0,0,.788-.313l9.971-10.516A8.039,8.039,0,0,0,3537.769,398.3Zm-1.489,9.471-.178-.168-9.092,9.59-9.092-9.588a5.71,5.71,0,0,1,0-7.729,4.833,4.833,0,0,1,3.381-1.562c.066,0,.133,0,.2,0a4.833,4.833,0,0,1,3.3,1.29c.1.088.188.181.278.278l1.108,1.168a1.18,1.18,0,0,0,1.663-.005l1.1-1.164a4.864,4.864,0,0,1,6.876-.276c.1.088.189.18.278.277a5.65,5.65,0,0,1,0,7.725Z" transform="translate(-3514.125 -396.013)"/></svg>