<svg xmlns="http://www.w3.org/2000/svg" xmlns:xlink="http://www.w3.org/1999/xlink" width="32.825" height="32.825" viewBox="0 0 32.825 32.825"><defs><style>.a{fill:#fff;}.b{fill:url(#a);}</style><radialGradient id="a" cx="-0.075" cy="-0.237" r="2.158" gradientTransform="translate(0)" gradientUnits="objectBoundingBox"><stop offset="0" stop-color="#f9e000"/><stop offset="0.054" stop-color="#f9db04"/><stop offset="0.117" stop-color="#facd0e"/><stop offset="0.183" stop-color="#fbb620"/><stop offset="0.251" stop-color="#fd9738"/><stop offset="0.305" stop-color="#ff7950"/><stop offset="0.492" stop-color="#ff1c74"/><stop offset="1" stop-color="#6c1cd0"/></radialGradient></defs><g transform="translate(-5766.245 -7060.52)"><circle class="a" cx="13.516" cy="13.516" r="13.516" transform="translate(5769.141 7063.416)"/><path class="b" d="M5794.967,7060.52h-24.619a4.107,4.107,0,0,0-4.1,4.1v24.619a4.107,4.107,0,0,0,4.1,4.1h24.619a4.107,4.107,0,0,0,4.1-4.1v-24.619A4.107,4.107,0,0,0,5794.967,7060.52ZM5792.9,7081.7a5.316,5.316,0,0,1-5.25,5.314c-3.309.12-6.629.123-9.937,0a5.41,5.41,0,0,1-5.26-5.329c-.017-.26-.073-.517-.111-.775v-7.959c.069-.483.121-.968.208-1.448a5.307,5.307,0,0,1,5.163-4.656c3.309-.114,6.628-.12,9.936,0a5.317,5.317,0,0,1,5.251,5.315Q5793.049,7076.926,5792.9,7081.7Zm-6.794-4.769a3.448,3.448,0,1,1-3.447-3.447A3.447,3.447,0,0,1,5786.1,7076.932Zm1.1-8.3q-4.512-.1-9.027,0a3.649,3.649,0,0,0-3.878,3.81q-.123,4.484,0,8.972a3.674,3.674,0,0,0,3.878,3.815c1.493.055,2.99.01,4.485.01,1.514,0,3.03.045,4.542-.01a3.7,3.7,0,0,0,3.885-3.872q.1-4.426,0-8.859A3.672,3.672,0,0,0,5787.2,7068.635Zm-4.544,13.555a5.258,5.258,0,1,1,5.257-5.258A5.258,5.258,0,0,1,5782.658,7082.19Zm5.564-9.5a1.251,1.251,0,1,1,1.251-1.251A1.252,1.252,0,0,1,5788.222,7072.686Z"/></g></svg>