<svg xmlns="http://www.w3.org/2000/svg" xmlns:xlink="http://www.w3.org/1999/xlink" width="32.825" height="32.826" viewBox="0 0 32.825 32.826"><defs><style>.a{fill:none;}.b{clip-path:url(#a);}.c{fill:#0083b0;}.d{fill:#fff;}</style><clipPath id="a"><path class="a" d="M5794.967,7017.694h-24.619a4.107,4.107,0,0,0-4.1,4.1v24.62a4.107,4.107,0,0,0,4.1,4.1h24.619a4.107,4.107,0,0,0,4.1-4.1V7021.8A4.107,4.107,0,0,0,5794.967,7017.694Z"/></clipPath></defs><g transform="translate(-5766.245 -7017.694)"><g class="b"><rect class="c" width="32.826" height="32.826" transform="translate(5766.245 7017.694)"/><path class="d" d="M5773.97,7022.68a2.747,2.747,0,1,1-2.766,2.743A2.757,2.757,0,0,1,5773.97,7022.68Z"/><path class="d" d="M5775.567,7045.531h-3.221a.757.757,0,0,1-.757-.757v-13.742a.757.757,0,0,1,.757-.757h3.221a.757.757,0,0,1,.757.757v13.742A.757.757,0,0,1,5775.567,7045.531Z"/><path class="d" d="M5794.111,7035.1a5.216,5.216,0,0,0-5.216-5.216h-.826a4.628,4.628,0,0,0-3.806,1.988,4.425,4.425,0,0,0-.254.408l-.043-.006v-1.686a.315.315,0,0,0-.314-.315h-4.019a.314.314,0,0,0-.314.315v14.627a.314.314,0,0,0,.314.314h4.106a.315.315,0,0,0,.315-.314v-8.451a2.679,2.679,0,0,1,2.625-2.69,2.657,2.657,0,0,1,2.687,2.656v8.486a.314.314,0,0,0,.314.314h4.117a.314.314,0,0,0,.314-.314V7035.1Z"/></g></g></svg>