<svg xmlns="http://www.w3.org/2000/svg" width="16.13" height="20.11" viewBox="0 0 16.13 20.11"><g transform="translate(-3612.161 -331.958)"><path d="M3620.222,331.958a8.072,8.072,0,0,0-8.061,8.061,7.929,7.929,0,0,0,.144,1.513c0,.03.021.118.055.27a7.915,7.915,0,0,0,.539,1.589,22.6,22.6,0,0,0,6.969,8.55.57.57,0,0,0,.717,0,22.629,22.629,0,0,0,6.968-8.55,7.834,7.834,0,0,0,.54-1.589c.034-.152.051-.24.055-.27a8.256,8.256,0,0,0,.143-1.513A8.083,8.083,0,0,0,3620.222,331.958Zm6.8,9.376c0,.008,0,.017,0,.025s-.017.085-.038.182v.008a6.746,6.746,0,0,1-.468,1.374c0,.005,0,.013-.009.017a6.43,6.43,0,1,1-12.554,0s0-.012-.009-.017a7.162,7.162,0,0,1-.468-1.374v-.008c-.025-.1-.033-.161-.038-.182s0-.017,0-.029a6.922,6.922,0,1,1,13.592,0Z"/><path d="M3620.222,334.989a5.118,5.118,0,1,0,5.118,5.118A5.126,5.126,0,0,0,3620.222,334.989Zm0,9.1a3.98,3.98,0,1,1,3.98-3.98A3.985,3.985,0,0,1,3620.222,344.087Z"/></g></svg>