<svg xmlns="http://www.w3.org/2000/svg" width="19.945" height="19.975" viewBox="0 0 19.945 19.975"><g transform="translate(-3327.01 -332.025)"><path d="M3342.782,344.4a1.963,1.963,0,0,0-1.425-.653,2.032,2.032,0,0,0-1.442.649l-1.332,1.328c-.109-.059-.219-.114-.324-.169-.152-.076-.3-.147-.418-.223a14.478,14.478,0,0,1-3.469-3.162,8.543,8.543,0,0,1-1.139-1.8c.346-.316.666-.645.978-.961.118-.118.236-.241.355-.359a1.934,1.934,0,0,0,0-2.917l-1.151-1.151c-.131-.131-.266-.265-.392-.4-.253-.262-.519-.532-.793-.784a2,2,0,0,0-1.412-.62,2.065,2.065,0,0,0-1.434.62l-.008.008-1.434,1.446a3.085,3.085,0,0,0-.914,1.96,7.382,7.382,0,0,0,.539,3.128,18.152,18.152,0,0,0,3.225,5.38,19.848,19.848,0,0,0,6.607,5.173,10.3,10.3,0,0,0,3.709,1.1c.089,0,.182.008.266.008a3.179,3.179,0,0,0,2.433-1.045c0-.009.012-.013.016-.021a9.71,9.71,0,0,1,.738-.763c.181-.173.367-.355.548-.544a2.1,2.1,0,0,0,.637-1.459,2.029,2.029,0,0,0-.649-1.446Zm1.509,4.439s0,0,0,0c-.164.177-.333.338-.514.515a11.1,11.1,0,0,0-.814.843,2.031,2.031,0,0,1-1.585.67c-.063,0-.13,0-.194,0a9.129,9.129,0,0,1-3.288-.987,18.74,18.74,0,0,1-6.223-4.873,17.14,17.14,0,0,1-3.035-5.055,6.025,6.025,0,0,1-.472-2.639,1.934,1.934,0,0,1,.582-1.252l1.437-1.438a.959.959,0,0,1,.641-.3.9.9,0,0,1,.616.3l.012.013c.257.24.5.489.759.754.131.135.266.27.4.409l1.151,1.151a.806.806,0,0,1,0,1.307c-.123.122-.241.245-.363.363-.354.362-.691.7-1.058,1.028-.009.009-.017.013-.021.022a.86.86,0,0,0-.22.956l.013.038a9.2,9.2,0,0,0,1.362,2.222l0,0a15.465,15.465,0,0,0,3.744,3.407c.173.109.35.2.518.282.152.076.3.148.418.224.016.008.033.021.05.029a.913.913,0,0,0,.418.106.9.9,0,0,0,.64-.291l1.442-1.442a.957.957,0,0,1,.637-.316.861.861,0,0,1,.607.307l.008.009,2.323,2.323A.833.833,0,0,1,3344.291,348.838Z"/><path d="M3337.791,336.777a5.424,5.424,0,0,1,4.418,4.418.565.565,0,0,0,.56.472.776.776,0,0,0,.1-.008.57.57,0,0,0,.468-.658,6.561,6.561,0,0,0-5.345-5.346.573.573,0,0,0-.658.464A.563.563,0,0,0,3337.791,336.777Z"/><path d="M3346.947,340.837a10.8,10.8,0,0,0-8.8-8.8.568.568,0,1,0-.186,1.121,9.652,9.652,0,0,1,7.867,7.867.566.566,0,0,0,.561.472.808.808,0,0,0,.1-.008A.558.558,0,0,0,3346.947,340.837Z"/></g></svg>