<svg xmlns="http://www.w3.org/2000/svg" width="32.826" height="32.826" viewBox="0 0 32.826 32.826"><defs><style>.a{fill:#fff;}.b{fill:#55abed;}</style></defs><g transform="translate(-5766.274 -7103.345)"><circle class="a" cx="12.551" cy="12.551" r="12.551" transform="translate(5770.136 7107.207)"/><path class="b" d="M5795,7103.345h-24.62a4.108,4.108,0,0,0-4.1,4.1v24.62a4.108,4.108,0,0,0,4.1,4.1H5795a4.107,4.107,0,0,0,4.1-4.1v-24.62A4.108,4.108,0,0,0,5795,7103.345Zm-4.707,12.513c.008.168.011.338.011.508a11.156,11.156,0,0,1-17.175,9.4,7.928,7.928,0,0,0,5.808-1.624,3.929,3.929,0,0,1-3.665-2.724,3.994,3.994,0,0,0,.739.069,3.919,3.919,0,0,0,1.033-.137,3.927,3.927,0,0,1-3.147-3.847v-.05a3.89,3.89,0,0,0,1.777.492,3.927,3.927,0,0,1-1.214-5.238,11.135,11.135,0,0,0,8.086,4.1,3.926,3.926,0,0,1,6.686-3.578,7.856,7.856,0,0,0,2.491-.952,3.941,3.941,0,0,1-1.725,2.17,7.807,7.807,0,0,0,2.253-.617A7.946,7.946,0,0,1,5790.29,7115.858Z"/></g></svg>